<svg id="Capa_1" enable-background="new 0 0 510.738 510.738" height="512" viewBox="0 0 510.738 510.738" width="512" xmlns="http://www.w3.org/2000/svg"><g id="XMLID_233_"><path id="XMLID_234_" d="m140.807 291.841c-6.707-87.217.919-151.734 23.313-197.24 3.582-7.278 7.42-13.787 11.423-19.63-18.834 13.883-39.015 34.896-56.41 66.727-13.639 24.957-25.185 72.829-30.887 128.06-3.6 34.858-4.273 75.582-1.603 96.833l1.65 13.13h39.362c.279-.623.56-1.23.837-1.875 7.326-17.03 15.409-45.775 12.315-86.005z"/><path id="XMLID_255_" d="m303.863 0c-1.09.042-8.841.462-18.499 3.981-6.705 3.789-12.231 8.627-16.513 14.535-8.13 11.217-8.916 22.471-8.919 22.579l-3.376 9.628-8.913 3.661c-25.189 10.347-92.099 37.832-76.925 235.156 2.967 38.582-2.962 68.682-10.948 90.73h209.141c-.965-10.231-3.869-22.666-10.754-37.634-10.284-22.356-56.092-118.326-61.859-133.455 3.471-.004 6.947-.203 10.413-.599 15.645-1.786 23.044-4.668 28.447-6.771 5.97-2.327 8.44-3.288 26.358 1.091l46.324 11.728c1.899.465 3.771.68 5.618.68 21.145-.004 38.417-28.301 42.416-35.403 4.828-7.224 6.545-15.871 4.834-24.412-1.744-8.706-6.819-16.144-14.289-20.941-6.573-4.222-80.269-64.411-112.132-82.293-7.24-4.063-14.896-7.061-22.848-8.952v-43.309zm-4.928 120.548c-.363-8.101 7.154-15 15-15 8.409 0 14.636 6.873 15 15 .363 8.101-7.154 15-15 15-8.409 0-14.636-6.873-15-15z"/><path id="XMLID_256_" d="m106.343 410.271c-10.6 0-20.721 5.05-26.594 13.874-3.346 5.028-5.298 11.06-5.298 17.54v9.111h354.836v-9.111c0-6.48-1.952-12.512-5.298-17.54-5.873-8.824-15.994-13.874-26.594-13.874z"/><path id="XMLID_320_" d="m49.385 480.796h404.968v29.942h-404.968z"/></g></svg>